<svg xmlns="http://www.w3.org/2000/svg" width="1310.529" height="695.59" viewBox="0 0 1310.529 695.59"><defs><style>.a{opacity:0.75;}.b{fill:#2f2e41;}.b,.c,.d{opacity:0.15;}.c,.d,.f{fill:none;}.c,.d{stroke:#2f2e41;}.c{stroke-width:2px;}.d{stroke-linecap:round;stroke-width:5px;}.e{stroke:none;}</style></defs><g class="a" transform="translate(-30.727 -28.697)"><path class="b" d="M22.05,49V26.95H0v-4.9H22.05V0h4.9V22.05H49v4.9H26.95V49Z" transform="translate(51.857 59.098) rotate(20)"/><path class="b" d="M22.05,49V26.95H0v-4.9H22.05V0h4.9V22.05H49v4.9H26.95V49Z" transform="translate(62.881 447.957) rotate(-31)"/><path class="b" d="M22.05,49V26.95H0v-4.9H22.05V0h4.9V22.05H49v4.9H26.95V49Z" transform="translate(369.395 520.56) rotate(-31)"/><path class="b" d="M22.05,49V26.95H0v-4.9H22.05V0h4.9V22.05H49v4.9H26.95V49Z" transform="translate(1280.778 88.829) rotate(8)"/><path class="b" d="M23.369,49.05V26.979L.035,26.819,0,21.914l23.369.16V0h5.15V22.109l22.982.157.035,4.905-23.017-.157V49.05Z" transform="translate(837.137 272.671) rotate(172)"/><path class="b" d="M22.05,49V26.95H0v-4.9H22.05V0h4.9V22.05H49v4.9H26.95V49Z" transform="matrix(0.695, 0.719, -0.719, 0.695, 1304.235, 510.856)"/><path class="b" d="M22.05,49V26.95H0v-4.9H22.05V0h4.9V22.05H49v4.9H26.95V49Z" transform="translate(869.698 77.136) rotate(-67)"/><path class="b" d="M23.3,50.32V27.691L.128,27.1,0,22.071l23.3.591V0h5.024V22.789l21.9.556.128,5.032-22.03-.559v22.5Z" transform="matrix(-0.695, 0.719, -0.719, -0.695, 725.449, 688.062)"/><path class="b" d="M22.05,49V26.95H0v-4.9H22.05V0h4.9V22.05H49v4.9H26.95V49Z" transform="translate(389 183)"/><path class="b" d="M22.05,49V26.95H0v-4.9H22.05V0h4.9V22.05H49v4.9H26.95V49Z" transform="translate(585.629 386.106) rotate(17)"/><g class="c" transform="translate(240.139 159.891) rotate(13)"><rect class="e" width="49" height="49"/><rect class="f" x="1" y="1" width="47" height="47"/></g><g class="c" transform="translate(513.177 253.271) rotate(13)"><rect class="e" width="49" height="49"/><rect class="f" x="1" y="1" width="47" height="47"/></g><g class="c" transform="translate(255.345 532.017) rotate(76)"><rect class="e" width="49" height="49"/><rect class="f" x="1" y="1" width="47" height="47"/></g><g class="c" transform="translate(590.171 553.991) rotate(76)"><rect class="e" width="49" height="49"/><rect class="f" x="1" y="1" width="47" height="47"/></g><g class="c" transform="translate(1341.257 334.11) rotate(133)"><rect class="e" width="49" height="49"/><rect class="f" x="1" y="1" width="47" height="47"/></g><g class="c" transform="translate(602.311 44.65) rotate(109)"><rect class="e" width="49" height="49"/><rect class="f" x="1" y="1" width="47" height="47"/></g><g class="c" transform="translate(779.661 419.852) rotate(47)"><rect class="e" width="50.186" height="50.186"/><rect class="f" x="1" y="1" width="48.186" height="48.186"/></g><g class="c" transform="matrix(0.993, 0.122, -0.122, 0.993, 1123.298, 388.256)"><rect class="e" width="49" height="49"/><rect class="f" x="1" y="1" width="47" height="47"/></g><g class="c" transform="translate(1005.057 535.742) rotate(173)"><rect class="e" width="49.038" height="49.038"/><rect class="f" x="1" y="1" width="47.038" height="47.038"/></g><g class="c" transform="translate(1036.791 58.311) rotate(-19)"><rect class="e" width="49" height="49"/><rect class="f" x="1" y="1" width="47" height="47"/></g><path class="d" d="M0,12.652S9.183-9.693,18.06,10.2s18.06,0,18.06,0,10.1-22.958,21.733,0,21.427,0,21.427,0" transform="matrix(0.839, -0.545, 0.545, 0.839, 34.838, 312.219)"/><path class="d" d="M0,12.652S9.183-9.693,18.06,10.2s18.06,0,18.06,0,10.1-22.958,21.733,0,21.427,0,21.427,0" transform="matrix(0.695, 0.719, -0.719, 0.695, 290.139, 329.496)"/><path class="d" d="M0,12.652S9.183-9.693,18.06,10.2s18.06,0,18.06,0,10.1-22.958,21.733,0,21.427,0,21.427,0" transform="translate(133.255 691.718) rotate(-155)"/><path class="d" d="M0,12.652S9.183-9.693,18.06,10.2s18.06,0,18.06,0,10.1-22.958,21.733,0,21.427,0,21.427,0" transform="translate(387.565 683.328) rotate(158)"/><path class="d" d="M0,12.652S9.183-9.693,18.06,10.2s18.06,0,18.06,0,10.1-22.958,21.733,0,21.427,0,21.427,0" transform="translate(237.208 45.706) rotate(13)"/><path class="d" d="M0,12.652S9.183-9.693,18.06,10.2s18.06,0,18.06,0,10.1-22.958,21.733,0,21.427,0,21.427,0" transform="translate(735.315 157.176) rotate(157)"/><path class="d" d="M0,12.652S9.183-9.693,18.06,10.2s18.06,0,18.06,0,10.1-22.958,21.733,0,21.427,0,21.427,0" transform="translate(1179.317 236.93) rotate(-162)"/><path class="d" d="M0,6.745s9.957,22.6,18.948,2.737,18.91.276,18.91.276,10.928,23.227,22.757.332,22.436.328,22.436.328" transform="matrix(0.951, -0.309, 0.309, 0.951, 934.067, 317.151)"/><path class="d" d="M0,12.652S9.183-9.693,18.06,10.2s18.06,0,18.06,0,10.1-22.958,21.733,0,21.427,0,21.427,0" transform="matrix(0.848, -0.53, 0.53, 0.848, 1113.746, 688.07)"/><path class="d" d="M0,9.474s9,22.457,18.679,2.062,18.736-.422,18.736-.422,9.943,23.057,22.547-.508,22.229-.5,22.229-.5" transform="matrix(-0.848, -0.53, 0.53, -0.848, 950.055, 707.835)"/></g></svg>