<svg xmlns="http://www.w3.org/2000/svg" width="538.642" height="292.631" viewBox="0 0 538.642 292.631"><defs><style>.a{fill:#f2f2f2;}.b{fill:#2f4858;}.c{fill:#2fe058;}.d{fill:none;stroke:#3f3d56;stroke-miterlimit:10;}.e{fill:#2f2e41;}.f{opacity:0.1;}.g{fill:#3f3d56;}.h{fill:#fbbebe;}.i{fill:#57b894;}.j{fill:#fff;}.k{fill:#6c63ff;opacity:0.3;}</style></defs><g transform="translate(0.226)"><ellipse class="a" cx="264.215" cy="17.492" rx="264.215" ry="17.492" transform="translate(6.583 257.647)"/><path class="b" d="M509.785,324.894c-43.048,0-73.956,27.618-73.956,92.061,0,73.035,30.908,92.368,73.956,92.368s75.8-21.174,75.8-92.368C585.582,340.852,552.833,324.894,509.785,324.894Zm.283,160.186c-29.816,0-45.393-17.492-45.393-68.078,0-44.635,16.215-68.173,46.031-68.173S556.736,364.291,556.736,417c0,49.311-16.853,68.078-46.668,68.078Z" transform="translate(-249.112 -241.242)"/><path class="c" d="M251.347,465.6h-17.8V413.192a10.5,10.5,0,0,0-10.5-10.5h-4.17a10.5,10.5,0,0,0-10.5,10.5V465.6h-50.2a5.992,5.992,0,0,1-5.3-8.792l53.135-100.567a10.5,10.5,0,0,0-4.8-14.395l-3.137-1.481a10.5,10.5,0,0,0-13.739,4.543l-64.8,121.23a14.233,14.233,0,0,0-1.681,6.71h0a14.233,14.233,0,0,0,14.233,14.233h76.294v33.142a12.582,12.582,0,0,0,12.582,12.582h0a12.582,12.582,0,0,0,12.582-12.582V487.085h17.8a10.74,10.74,0,0,0,10.74-10.741h0a10.74,10.74,0,0,0-10.741-10.74Z" transform="translate(-90.407 -248.463)"/><path class="c" d="M909.343,465.6h-17.8V413.192a10.5,10.5,0,0,0-10.5-10.5h-4.17a10.5,10.5,0,0,0-10.5,10.5V465.6h-50.2a5.992,5.992,0,0,1-5.3-8.792l53.135-100.567a10.5,10.5,0,0,0-4.8-14.395l-3.137-1.481a10.5,10.5,0,0,0-13.739,4.543l-64.8,121.23a14.233,14.233,0,0,0-1.681,6.71h0a14.233,14.233,0,0,0,14.233,14.233h76.293v33.142a12.582,12.582,0,0,0,12.582,12.582h0a12.582,12.582,0,0,0,12.582-12.582V487.085h17.8a10.74,10.74,0,0,0,10.74-10.741h0a10.74,10.74,0,0,0-10.741-10.74Z" transform="translate(-418.826 -248.463)"/><path class="d" d="M261.15,453.351h-17.8V400.939a10.5,10.5,0,0,0-10.5-10.5h-4.171a10.5,10.5,0,0,0-10.5,10.5v52.412h-50.2a5.992,5.992,0,0,1-5.3-8.792l53.135-100.567a10.5,10.5,0,0,0-4.8-14.395l-3.137-1.481a10.5,10.5,0,0,0-13.739,4.543l-64.8,121.23a14.233,14.233,0,0,0-1.681,6.71h0a14.233,14.233,0,0,0,14.233,14.233h76.293v33.142a12.582,12.582,0,0,0,12.582,12.582h0a12.582,12.582,0,0,0,12.582-12.582V474.832h17.8a10.741,10.741,0,0,0,10.74-10.741h0a10.741,10.741,0,0,0-10.74-10.74Z" transform="translate(-95.3 -242.348)"/><path class="d" d="M927.722,453.351h-17.8V400.939a10.5,10.5,0,0,0-10.5-10.5h-4.17a10.5,10.5,0,0,0-10.5,10.5v52.412h-50.2a5.992,5.992,0,0,1-5.3-8.791l53.135-100.567a10.5,10.5,0,0,0-4.8-14.395l-3.137-1.481a10.5,10.5,0,0,0-13.739,4.543l-64.805,121.23a14.233,14.233,0,0,0-1.681,6.71h0a14.233,14.233,0,0,0,14.233,14.233h76.294v33.142a12.582,12.582,0,0,0,12.582,12.582h0a12.582,12.582,0,0,0,12.582-12.582V474.832h17.8a10.741,10.741,0,0,0,10.74-10.741h0a10.74,10.74,0,0,0-10.741-10.74Z" transform="translate(-427.999 -242.348)"/><path class="d" d="M529.39,313.866c-43.048,0-73.956,27.618-73.956,92.061,0,73.035,30.908,92.368,73.956,92.368s75.8-21.174,75.8-92.368C605.187,329.824,572.438,313.866,529.39,313.866Zm.283,160.186c-29.816,0-45.393-17.492-45.393-68.078,0-44.635,16.215-68.173,46.031-68.173s46.031,15.461,46.031,68.173c0,49.311-16.852,68.078-46.668,68.078Z" transform="translate(-258.898 -235.738)"/><circle class="e" cx="6.462" cy="6.462" r="6.462" transform="translate(229.524 2.679)"/><ellipse class="e" cx="18.125" cy="23.484" rx="18.125" ry="23.484" transform="translate(233.622 0)"/><path class="f" d="M547.6,217.627c-9.08,0-16.6-8.65-17.919-19.937a30.547,30.547,0,0,0-.206,3.546c0,12.97,8.115,23.484,18.125,23.484s18.125-10.514,18.125-23.484a30.52,30.52,0,0,0-.206-3.546C564.2,208.976,556.68,217.627,547.6,217.627Z" transform="translate(-295.853 -177.752)"/><path class="g" d="M611.966,335.578c-.389,1.6-2.068,2.881-3.926,3.776-3.908,1.882-8.728,2.443-13.4,2.632a22.625,22.625,0,0,1-3.578-.066,10.287,10.287,0,0,1-6.136-2.821.842.842,0,0,1,.022-1.424c2.489-2.734,6.643-4.411,10.827-5.618,3.173-.915,8.706-3.286,12.167-2.966C611.289,329.4,612.457,333.559,611.966,335.578Z" transform="translate(-323.337 -243.322)"/><path class="f" d="M611.966,335.578c-.389,1.6-2.068,2.881-3.926,3.776-3.908,1.882-8.728,2.443-13.4,2.632a22.625,22.625,0,0,1-3.578-.066,10.287,10.287,0,0,1-6.136-2.821.842.842,0,0,1,.022-1.424c2.489-2.734,6.643-4.411,10.827-5.618,3.173-.915,8.706-3.286,12.167-2.966C611.289,329.4,612.457,333.559,611.966,335.578Z" transform="translate(-323.337 -243.322)"/><path class="b" d="M539.02,292.177a9.9,9.9,0,0,0-.6,7.551,13.193,13.193,0,0,0,4.422,6.259c5.056,4.053,12.015,4.611,18.495,4.554a142.571,142.571,0,0,0,16.982-1.164,20.3,20.3,0,0,0,5.51-1.279,8.447,8.447,0,0,0,4.726-4.771,5.813,5.813,0,0,0-1.57-6.3c-1.571-1.277-3.738-1.453-5.759-1.574l-11.564-.695a19.617,19.617,0,0,1,4.055-2.651c1.846-1.115,3.072-2.988,4.414-4.676a64.611,64.611,0,0,1,6.731-6.921,9.937,9.937,0,0,0,3.35,5.422c1.607,1.49,3.46,2.689,5.131,4.107,4.046,3.435,6.96,8.1,11.216,11.27A21.953,21.953,0,0,0,612.6,297.3l-1.654-3a1.974,1.974,0,0,0-.623-.778c-.468-.288-1.072-.14-1.615-.221-1.453-.218-2.088-1.9-2.658-3.249-1.565-3.717-4.562-6.6-7.121-9.719a49.089,49.089,0,0,1-5.007-7.374,25.228,25.228,0,0,0-2.814-4.51,6.346,6.346,0,0,0-4.577-2.394,8.815,8.815,0,0,0-4.365,1.594,115.44,115.44,0,0,0-11.836,8.064,27.384,27.384,0,0,1-6.256,4.094c-.975.4-2,.666-2.94,1.148a19.656,19.656,0,0,0-4.223,3.538A28.07,28.07,0,0,1,539.02,292.177Z" transform="translate(-300.077 -211.875)"/><path class="h" d="M573.542,233.486a11.91,11.91,0,0,1-.868,4.024,5.031,5.031,0,0,1-2.889,2.791,6.2,6.2,0,0,1-2.816.091,5.451,5.451,0,0,1-2.295-.782,4.893,4.893,0,0,1-1.822-3.378c-.2-1.3-.109-2.629-.235-3.939a21.508,21.508,0,0,0-.6-3.133c-.085-.342-.172-.682-.257-1.023s-.165-.681-.241-1.021c-.069-.32-.134-.641-.189-.965-.046-.273-.087-.547-.117-.823a9.227,9.227,0,0,0-.405-2.41,7.316,7.316,0,0,0-.845-1.43c-.143-.2-.282-.41-.41-.623a2.95,2.95,0,0,1-.487-1.877,1.647,1.647,0,0,1,.074-.3c.013-.038.027-.076.043-.112A.9.9,0,0,0,559.8,218a1.719,1.719,0,0,0-.074-.89,5.665,5.665,0,0,0-.481-1.146c-.132-.24-.582-.671-.585-.946-.006-.552,1.072-1,1.508-1.214a8.413,8.413,0,0,1,4.306-.873,3.176,3.176,0,0,1,2.514,1.157,7.583,7.583,0,0,1,.611,2.49.736.736,0,0,0,.15.333.672.672,0,0,0,.37.17,2.279,2.279,0,0,0,.709.028h0a1.471,1.471,0,0,0,.186-.027,2.484,2.484,0,0,0,1.018-.44q.293-.078.591-.128l.024,0c.79,2.492.892,5.163,1.538,7.7a19.767,19.767,0,0,1,.843,3.808c0,.057.006.115.008.173.009.418-.024.838-.006,1.255a3.5,3.5,0,0,0,.063.558,7.815,7.815,0,0,0,.263.873l0,.014c.03.091.058.184.082.277.017.068.033.134.046.2l0,0A7.483,7.483,0,0,1,573.542,233.486Z" transform="translate(-310.418 -185.352)"/><circle class="h" cx="9.299" cy="9.299" r="9.299" transform="translate(242.764 13.239)"/><path class="h" d="M630.4,262.064A15.249,15.249,0,0,0,627.78,255q.362,2.151.725,4.3a1.61,1.61,0,0,1-1.686-.518,5.178,5.178,0,0,1-.884-1.641,33.794,33.794,0,0,0-4.112-7.381c-5.92-.493-11.772-2.947-16.978-5.808s-10.081-6.287-15.219-9.267a21.824,21.824,0,0,0-2.777-1.418c-1.608-.645-3.412-.979-4.936-1.737-.1-.05-.2-.1-.306-.159a6.3,6.3,0,0,1-.974-.654,5.17,5.17,0,0,1-.466-.429,10.192,10.192,0,0,1-1.783-2.982c-.818-1.809-1.11-3.992-1.926-5.8a5.609,5.609,0,0,1,1.253-.884h0c.066-.035.132-.068.2-.1a5.979,5.979,0,0,1,1-.367q.293-.078.591-.128l.024,0a5.793,5.793,0,0,1,2.75.217,12.719,12.719,0,0,1,3.477,2.14,57.1,57.1,0,0,1,5.083,4.032c.9.861,1.718,1.806,2.684,2.588a21.115,21.115,0,0,0,2.533,1.679l15.685,9.341c1.77,1.054,3.541,2.109,5.272,3.225,2.629,1.7,5.163,3.534,7.7,5.37l4.476,3.245a4.873,4.873,0,0,1,1.269,1.173,4.244,4.244,0,0,1,.563,1.72A15.721,15.721,0,0,1,630.4,262.064Z" transform="translate(-319.303 -188.861)"/><path class="c" d="M563.587,244.067c-.627,2.813-3.471,4.514-4.957,6.985-1.847,3.067-1.094,6.632-.4,10.145l-3.8,3.277c-.7.6-1.4,1.2-2.153,1.735a28.725,28.725,0,0,1-3.436,1.973l-3.367,1.732a16.091,16.091,0,0,1-3.3,1.4,12.7,12.7,0,0,1-6.747-.487,3.049,3.049,0,0,1-.738-.3,1.2,1.2,0,0,1-.35-.317,1.959,1.959,0,0,1-.222-1.272,59.793,59.793,0,0,1,2.019-10.864,32.025,32.025,0,0,1,4.64-11.384,34.244,34.244,0,0,1,3.972-5.767,9.254,9.254,0,0,0,1.841-2.374c.56-1.277.344-2.741.457-4.131a8.588,8.588,0,0,1,.818-3.009v0a8.569,8.569,0,0,1,.873-1.444l.459,1.067q.151.35.3.7.194.449.385.9l1.1,2.561a10.815,10.815,0,0,0,1.671,2.977,3.255,3.255,0,0,0,5.572-.427,10.651,10.651,0,0,0,1.138-3.012,9.625,9.625,0,0,0,.126-3.924,46.377,46.377,0,0,0-2.222-7.4,7.485,7.485,0,0,1-.541-2.44,1.678,1.678,0,0,1,.028-.281l.014-.072a5.982,5.982,0,0,1,1-.367q.293-.078.591-.128,1.024,5.542,2.05,11.083c.016.087.033.173.049.262.1.53.2,1.059.307,1.587.1.479.206.957.326,1.431l0,.014c.041.161.083.32.128.479l0,0c.121.435.257.867.41,1.292C562.565,238.823,564.181,241.4,563.587,244.067Z" transform="translate(-298.158 -188.94)"/><path class="b" d="M668.316,338.031a3.3,3.3,0,0,0,.306,1.574c.582,1.064,1.978,1.305,3.187,1.4a94.357,94.357,0,0,0,21.17-.645,2.448,2.448,0,0,0,1.078-.334c1-.7.382-2.4-.706-2.947s-2.38-.414-3.574-.65a11.261,11.261,0,0,1-3.345-1.451q-3.633-2.087-7.159-4.352c-1.4-.9-3.052-1.858-4.628-1.325C670.374,330.751,668.288,333.424,668.316,338.031Z" transform="translate(-365.149 -243.368)"/><path class="h" d="M535.187,232.858v0c-.011.066-.022.131-.036.2-.017.107-.038.216-.058.323-.2,1-.435,2-.711,2.987-.757,2.735-1.77,5.425-2.776,8.076l-8.1,21.326c-.681,1.79-1.36,3.582-2.134,5.337-.258.585-.525,1.174-.79,1.77a24.626,24.626,0,0,0-2.162,6.6,13.75,13.75,0,0,0-.1,4.528,4.645,4.645,0,0,0,2.62,3.491c.69.27,1.678.63,1.489,1.348-.1.394-.55.586-.952.652a3.663,3.663,0,0,1-2.988-.861c-.755-.67-1.335-1.712-2.339-1.824a3.956,3.956,0,0,0-1.972.632c-2.6,1.187-5.623.356-8.352-.487a2.93,2.93,0,0,1,2.426-2.054,19.624,19.624,0,0,1,3.365-.095,1.758,1.758,0,0,0,1.023-.263,1.856,1.856,0,0,0,.552-.943,39.555,39.555,0,0,0,1.609-6.585c.362-2.337.514-4.711,1.031-7.02.4-1.8,1.023-3.546,1.556-5.315a112.549,112.549,0,0,0,2.534-11.058,39.1,39.1,0,0,0,.714-4.692c.09-1.308.047-2.623.173-3.926A30.5,30.5,0,0,1,521.874,240l1.445-5.354c.714-2.64,1.48-5.382,3.289-7.434a6.993,6.993,0,0,1,5.023-2.4,4.948,4.948,0,0,1,1.067.115c.058.014.117.028.175.044a4.324,4.324,0,0,1,1.089.451c.558-.355.842-.23,1.212.317a3.493,3.493,0,0,1,.441,1.9,26.261,26.261,0,0,1-.429,5.217Z" transform="translate(-284.053 -191.29)"/><path class="c" d="M561.507,234.762l-.024.024-.128.128-1.267,1.266-.621-2.608-2.129-8.943a4.949,4.949,0,0,1,1.067.115,1.652,1.652,0,0,1,.074-.3l.1.345.722,2.456,1.366,4.662.225.768v0Z" transform="translate(-309.76 -191.104)"/><path class="e" d="M561.609,181.806a6.3,6.3,0,0,1-1.854,4.456,6.17,6.17,0,0,1-.681.589,6.275,6.275,0,0,1-3.774,1.264h-7.561a6.306,6.306,0,1,1,0-12.612H555.3A6.326,6.326,0,0,1,561.609,181.806Z" transform="translate(-301.821 -166.678)"/><circle class="e" cx="6.462" cy="6.462" r="6.462" transform="translate(260.416 2.679)"/><path class="f" d="M595.318,163.234c-.079,0-.158,0-.236.006a6.46,6.46,0,0,1,0,12.912c.079,0,.157.006.236.006a6.462,6.462,0,0,0,0-12.924Z" transform="translate(-328.599 -160.555)"/><path class="f" d="M527.756,163.234c.079,0,.158,0,.236.006a6.46,6.46,0,0,0,0,12.912c-.079,0-.157.006-.236.006a6.462,6.462,0,0,1,0-12.924Z" transform="translate(-291.77 -160.555)"/><path class="f" d="M561.6,198.159a6.275,6.275,0,0,1-3.774,1.264h-7.562a6.275,6.275,0,0,1-3.774-1.264Z" transform="translate(-304.344 -177.986)"/><path class="h" d="M674.14,288.958s1.629,4.694,3.12,3.444l-1.189-6.135Z" transform="translate(-368.058 -221.963)"/><path class="i" d="M1063.078,557.283a10.425,10.425,0,1,0,1.388-19.993l.261,5.366-2.538-4.6a10.386,10.386,0,0,0-5.351,5.872,10.226,10.226,0,0,0-.6,2.82A10.423,10.423,0,0,0,1063.078,557.283Z" transform="translate(-558.757 -347.138)"/><path class="d" d="M1093.043,610.586c-.9-4.563,2.987-8.609,6.822-11.238s8.317-5.213,9.626-9.675c1.881-6.413-3.722-12.287-8.082-17.351a62.769,62.769,0,0,1-8.276-12.3,16.933,16.933,0,0,1-1.98-5.593c-.344-2.843.57-5.672,1.49-8.383q4.6-13.55,9.832-26.872" transform="translate(-576.16 -338.21)"/><path class="d" d="M1063.927,554.525a10.425,10.425,0,1,0,1.388-19.993l.261,5.365-2.539-4.6a10.385,10.385,0,0,0-5.351,5.872,10.22,10.22,0,0,0-.6,2.82A10.423,10.423,0,0,0,1063.927,554.525Z" transform="translate(-559.181 -345.761)"/><path class="i" d="M1091.826,508.63a10.412,10.412,0,0,1,7.5-6.61l.858,5.1,1.591-5.357a10.423,10.423,0,1,1-9.953,6.867Z" transform="translate(-576.22 -329.521)"/><path class="d" d="M1092.966,504.952a10.412,10.412,0,0,1,7.5-6.61l.858,5.1,1.591-5.357a10.423,10.423,0,1,1-9.953,6.867Z" transform="translate(-576.789 -327.685)"/><path class="i" d="M1101.192,605.334a10.423,10.423,0,0,0,9.226-18.544l-1.223,4.117-.867-5.161-.027-.01a10.424,10.424,0,0,0-7.109,19.6Z" transform="translate(-577.777 -371.12)"/><path class="d" d="M1102.192,601.609a10.423,10.423,0,0,0,9.226-18.544l-1.223,4.117-.867-5.161-.027-.01a10.424,10.424,0,0,0-7.109,19.6Z" transform="translate(-578.276 -369.26)"/><path class="i" d="M1086.22,647.871a10.419,10.419,0,1,0,2.009-8.163l4.645,6.991-6.346-3.71A10.327,10.327,0,0,0,1086.22,647.871Z" transform="translate(-573.655 -396.345)"/><path class="d" d="M1087.07,645.114a10.419,10.419,0,1,0,2.009-8.163l4.645,6.99-6.346-3.71A10.326,10.326,0,0,0,1087.07,645.114Z" transform="translate(-574.079 -394.969)"/><path class="i" d="M67.566,614.893a6.849,6.849,0,1,0,.912-13.136l.171,3.525-1.668-3.021a6.823,6.823,0,0,0-3.516,3.858,6.715,6.715,0,0,0-.394,1.853,6.848,6.848,0,0,0,4.494,6.921Z" transform="translate(-63.054 -379.354)"/><path class="d" d="M87.252,649.914c-.589-3,1.962-5.656,4.482-7.384s5.465-3.425,6.324-6.357c1.236-4.214-2.445-8.072-5.31-11.4a41.234,41.234,0,0,1-5.438-8.081,11.124,11.124,0,0,1-1.3-3.675,12.683,12.683,0,0,1,.979-5.508q3.021-8.9,6.459-17.656" transform="translate(-74.487 -373.488)"/><path class="d" d="M68.129,613.081a6.849,6.849,0,1,0,.912-13.136l.171,3.525-1.668-3.021a6.823,6.823,0,0,0-3.516,3.858,6.717,6.717,0,0,0-.394,1.853A6.848,6.848,0,0,0,68.129,613.081Z" transform="translate(-63.335 -378.45)"/><path class="i" d="M86.457,582.927a6.841,6.841,0,0,1,4.93-4.343l.564,3.351L93,578.416a6.848,6.848,0,1,1-6.539,4.512Z" transform="translate(-74.529 -367.779)"/><path class="d" d="M87.208,580.511a6.841,6.841,0,0,1,4.93-4.343l.564,3.351L93.747,576a6.848,6.848,0,1,1-6.539,4.512Z" transform="translate(-74.904 -366.574)"/><path class="i" d="M92.612,646.464a6.848,6.848,0,0,0,6.061-12.184l-.8,2.7-.57-3.391-.017-.007a6.849,6.849,0,1,0-4.671,12.876Z" transform="translate(-75.553 -395.111)"/><path class="d" d="M93.263,644.017a6.848,6.848,0,0,0,6.061-12.184l-.8,2.7-.57-3.391-.017-.007a6.849,6.849,0,1,0-4.671,12.876Z" transform="translate(-75.878 -393.889)"/><path class="i" d="M82.771,674.411a6.845,6.845,0,1,0,1.32-5.363l3.052,4.593-4.17-2.438A6.784,6.784,0,0,0,82.771,674.411Z" transform="translate(-72.842 -411.684)"/><path class="d" d="M83.334,672.6a6.845,6.845,0,1,0,1.32-5.363l3.052,4.593-4.17-2.438A6.785,6.785,0,0,0,83.334,672.6Z" transform="translate(-73.123 -410.78)"/><ellipse class="b" cx="8.515" cy="11.019" rx="8.515" ry="11.019" transform="translate(232.382 148.82)"/><ellipse class="b" cx="8.515" cy="11.019" rx="8.515" ry="11.019" transform="translate(278.714 149.07)"/><path class="b" d="M592.555,533.516c0,4.979-6.952,9.016-15.527,9.016s-15.527-4.037-15.527-9.016c0-4.313,5.214-7.919,12.181-8.8a25.1,25.1,0,0,1,3.346-.215,25.4,25.4,0,0,1,5.575.6C588.422,526.4,592.555,529.679,592.555,533.516Z" transform="translate(-311.837 -340.869)"/><ellipse class="d" cx="8.515" cy="11.019" rx="8.515" ry="11.019" transform="translate(234.386 146.316)"/><ellipse class="d" cx="8.515" cy="11.019" rx="8.515" ry="11.019" transform="translate(280.718 146.566)"/><ellipse class="d" cx="15.527" cy="9.016" rx="15.527" ry="9.016" transform="translate(251.666 181.127)"/><path class="j" d="M594.516,525.6a2.473,2.473,0,0,1-.661,1.7,2.173,2.173,0,0,1-1.593.705h-5.009A2.336,2.336,0,0,1,585,525.6a2.457,2.457,0,0,1,.411-1.373,23.574,23.574,0,0,1,3.346-.23,23.878,23.878,0,0,1,5.575.641A2.539,2.539,0,0,1,594.516,525.6Z" transform="translate(-323.565 -340.619)"/><circle class="j" cx="2.504" cy="2.504" r="2.504" transform="translate(240.397 151.825)"/><circle class="j" cx="2.504" cy="2.504" r="2.504" transform="translate(286.979 151.825)"/><circle class="k" cx="2.504" cy="2.504" r="2.504" transform="translate(289.483 175.367)"/><circle class="k" cx="2.504" cy="2.504" r="2.504" transform="translate(228.375 175.367)"/></g></svg>