<svg xmlns="http://www.w3.org/2000/svg" width="19.83" height="19.815" viewBox="0 0 19.83 19.815">
  <path id="support" d="M-.005,16.636a3.079,3.079,0,0,0,.828,2.071l.621.57a2.657,2.657,0,0,0,2.019.828,2.851,2.851,0,0,0,2.071-.828l5.954-5.954A6.627,6.627,0,0,0,19.824,6.9a6.5,6.5,0,0,0-.518-2.64l-.052-.052V4.158l-.052-.1L19.151,4,19.1,3.951,19,3.9l-.052-.052L18.892,3.8l-.052-.052h-.155l-.1-.052h-.155l-.1.052h-.052l-.1.052h-.052l-.052.052-.1.052-.052.052L14.388,7.472l-1.709-1.76,3.469-3.521.052-.052.052-.052.052-.1.052-.052v-.1l.052-.052V1.466l-.052-.1V1.311L16.3,1.259v-.1L16.252,1.1,16.2,1.052,16.148,1l-.1-.052L15.993.9,15.941.845h-.052A6.627,6.627,0,0,0,6.829,8.611L.823,14.565a2.9,2.9,0,0,0-.828,2.071Zm13.2-14.7.828.052L11.488,4.521a1.657,1.657,0,0,0,0,2.382l1.76,1.76a1.657,1.657,0,0,0,2.33,0l2.537-2.537.052.777a4.932,4.932,0,1,1-4.97-4.97ZM2.014,15.756,7.5,10.268l.052.1.311.414.155.207a7.488,7.488,0,0,0,1.087,1.139l.207.1.466.311.052.052L4.344,18.086a1.234,1.234,0,0,1-1.76,0l-.57-.57a1.243,1.243,0,0,1,0-1.76Zm0,0" transform="translate(0.006 -0.29)" fill="#2f4858"/>
</svg>
