<svg xmlns="http://www.w3.org/2000/svg" width="17.436" height="15.954" viewBox="0 0 17.436 15.954">
  <path id="heart" d="M12.641,21.675a5.239,5.239,0,0,0-3.923,1.831,5.239,5.239,0,0,0-3.923-1.831A4.727,4.727,0,0,0,0,26.47C0,29.783,2.964,32.485,7.5,36.5l1.221,1.133L9.938,36.5c4.446-4.1,7.5-6.8,7.5-10.026A4.727,4.727,0,0,0,12.641,21.675Zm-3.836,13.6H8.718l-.087-.087C4.446,31.439,1.744,29,1.744,26.47a2.979,2.979,0,0,1,3.051-3.051,3.541,3.541,0,0,1,3.138,2.092H9.59a3.324,3.324,0,0,1,3.051-2.092,2.979,2.979,0,0,1,3.051,3.051C15.692,29,12.99,31.439,8.805,35.275Z" transform="translate(0 -21.675)" fill="#2f4858"/>
</svg>
