<svg xmlns="http://www.w3.org/2000/svg" width="24.39" height="21.639" viewBox="0 0 24.39 21.639">
  <g id="save-money" transform="translate(-0.36 -106.492)">
    <g id="Group_22" data-name="Group 22" transform="translate(6.254 106.492)">
      <path id="Path_8" data-name="Path 8" d="M188.015,153.765a.433.433,0,0,0-.156-.005,1.032,1.032,0,0,1-.913-1.024.454.454,0,1,0-.908,0,1.943,1.943,0,0,0,1.428,1.87v.454a.454.454,0,0,0,.908,0v-.427a1.939,1.939,0,0,0-.4-3.837,1.031,1.031,0,1,1,1.031-1.031.454.454,0,1,0,.908,0,1.943,1.943,0,0,0-1.542-1.9v-.413a.454.454,0,0,0-.908,0v.441a1.939,1.939,0,0,0,.511,3.809,1.03,1.03,0,0,1,.038,2.06Zm0,0" transform="translate(-181.392 -144.701)" fill="#2fe058"/>
      <path id="Path_9" data-name="Path 9" d="M104.195,113.077a6.585,6.585,0,1,0,6.585-6.585A6.585,6.585,0,0,0,104.195,113.077Zm6.585-5.677a5.677,5.677,0,1,1-5.677,5.677A5.677,5.677,0,0,1,110.78,107.4Zm0,0" transform="translate(-104.195 -106.492)" fill="#2fe058"/>
    </g>
    <path id="Path_10" data-name="Path 10" d="M21.662,328.166,18.1,329.847a2.9,2.9,0,0,0-2.47-1.524l-3.284-.09a3.469,3.469,0,0,1-1.492-.385l-.334-.173a5.894,5.894,0,0,0-5.459.006l.021-.757a.454.454,0,0,0-.441-.467l-3.6-.1a.454.454,0,0,0-.466.441L.36,334.7a.454.454,0,0,0,.441.467l3.6.1h.012a.454.454,0,0,0,.454-.442l.01-.378.935-.5a1.6,1.6,0,0,1,1.2-.131l5.586,1.568.03.007a5.976,5.976,0,0,0,1.228.127,6.058,6.058,0,0,0,2.531-.552.421.421,0,0,0,.056-.031l8.1-5.239a.454.454,0,0,0,.149-.6A2.294,2.294,0,0,0,21.662,328.166ZM1.28,334.272l.192-6.994,2.693.074-.192,6.994Zm14.7-.119a5.149,5.149,0,0,1-3.149.351L7.258,332.94a2.511,2.511,0,0,0-1.872.2l-.478.256.128-4.65a4.992,4.992,0,0,1,5.071-.271l.334.173a4.385,4.385,0,0,0,1.885.487l3.284.09a1.992,1.992,0,0,1,1.893,1.587l-4.892-.135a.454.454,0,1,0-.025.908l5.4.149H18a.454.454,0,0,0,.454-.442,2.882,2.882,0,0,0-.044-.589l3.649-1.724.011-.005a1.387,1.387,0,0,1,1.569.22Zm0,0" transform="translate(0 -207.385)" fill="#2f4858"/>
  </g>
</svg>
